<svg xmlns="http://www.w3.org/2000/svg" width="512" height="512" viewBox="0 0 512 512">
  <rect width="512" height="512" fill="#2563eb" rx="64"/>
  <path fill="white" d="M256 96c-88 0-160 72-160 160s72 160 160 160 160-72 160-160-72-160-160-160zm0 272c-62 0-112-50-112-112s50-112 112-112 112 50 112 112-50 112-112 112z"/>
  <path fill="white" d="M256 160c-53 0-96 43-96 96s43 96 96 96 96-43 96-96-43-96-96-96zm0 144c-26 0-48-22-48-48s22-48 48-48 48 22 48 48-22 48-48 48z"/>
  <path fill="white" d="M208 232h96v24H208z"/>
</svg>
